<?xml version="1.0" encoding="utf-8"?>
<!-- Generator: Adobe Illustrator 21.0.0, SVG Export Plug-In . SVG Version: 6.00 Build 0)  -->
<svg version="1.1" id="Livello_1" xmlns="http://www.w3.org/2000/svg" xmlns:xlink="http://www.w3.org/1999/xlink" x="0px" y="0px"
	 viewBox="0 0 443 230" style="enable-background:new 0 0 443 230;" xml:space="preserve">
<style type="text/css">
	.st0{fill:#DEAB00;}
</style>
<g id="Livello_2">
	<g id="Livello_1-2">
		<path class="st0" d="M253.4,78.5c-0.2,0.3-0.1,0.8-0.2,1.2c-0.2,0.8-0.5,1.6-0.8,2.4c-1.1-0.7-1.9-1.2-2.7-1.8
			c-0.8-0.5-1.8-0.4-2.5,0.2c-0.7,0.9-1.5,1.8-2.3,2.8c-1-0.3-2.1,0-2.9,0.7c-0.2,0.2-0.4,0.7-0.3,0.8c1,0.8,0.5,1.6,0.1,2.5
			c-0.3,0.6-0.2,0.8,0.5,1.1c0.6,0.2,1,0.6,1.3,1.2c0.7,1.2,1.7,2.2,2.9,2.9l1.6-3.8h0.2c0,0.4-0.1,0.7-0.1,1.1
			c-0.1,1.7-0.7,3.3-0.1,5c0.2,0.6,0.4,0.8,0.9,0.3c0.4-0.5,0.8-1,1.1-1.6c0.4-0.9,0.8-1.8,1-2.8c0.4-2.1,1-2.8,3.1-3.1
			c0.4-0.1,0.7-0.3,1-0.6c1.5-1.7,1.2-3.6,0.5-5.6c-0.2-0.6-0.3-1.3-0.2-2c0.2-0.6-0.2-1.2-0.8-1.4c-0.1,0-0.1,0-0.2,0
			C254,78,253.6,78.1,253.4,78.5"/>
		<path class="st0" d="M245.9,92.7c-1.4-1.3-2.4-3.2-4.8-3.6c0,0.5-0.2,1-0.1,1.4c0.5,1.2,1.2,2.3,1.8,3.4c0.2,0.5,0.2,1,0.4,1.5
			c0.2,0.5,0.4,1.1,0.7,1.2c1.2,0.2,2.3,0.3,3.5,0.3c0.5,0,0.9-0.5,0.8-1c0-0.1,0-0.2-0.1-0.4C247.4,94.5,246.7,93.6,245.9,92.7"/>
		<path class="st0" d="M258.8,70.3c0.5,0.4,0.9,1,1,1.6c0,0.5-0.5,0.4-1.1,0c-0.5-0.3-1-0.4-1.5-0.7c0.2,0.6,0.5,1.2,1,1.7
			c0.9,0.9,2.3,1.3,2,3c-0.1,0.3,0.6,0.7,1.1,1c0.4,0.3,0.8,0.3,1.1,0.5c0.2,0.2,0.3,0.4,0.3,0.6c0,1.4,0,2.8,0,4.2
			c0,0.4,0.2,0.7,0.6,0.9c0.8,0.3,1.3,1,1.3,1.8c0,0.5,0.1,1.1,0.2,1.7c0,0-0.4,1.2-0.8,1.3c0.1-0.5,0.1-0.9,0.2-1.4
			c0-0.5,0-1.2,0-1.5c0.1-1-0.7-1-1.3-1.3c-0.4-0.3-0.8-0.6-1.1-0.9l-1.3-1c-0.5,0.9-0.9,1.7-1.3,2.5c-0.2,0.3-0.5,0.8-0.8,0.8
			c-1.2,0-1.5,0.9-1.9,1.7c-0.4,0.6-0.8,1.1-1.3,1.5c-0.8,0.7-1.6,1.4-2.3,2.2c-1.1,1.6-2,3.3-3,4.9c1.9,0.5,2.9,1.7,2.9,3.5
			c-0.9-0.6-0.9-2-2.3-2.1c-1.2,0-2.1,0.2-2.5,1.1c0.4,0.5,0.8,0.9,0.9,1.3c0.1,1.1,0.8,2.1,1.8,2.5c0.6,0.3,1.1,0.9,1.7,1.2
			c0.6,0.3,1.3,0.6,2,0.7c1,0,1.9,0,2.9-0.1c-1.4,1.1-2.8,0.3-4.4,0.9l3.6,3.2l-0.2,0.2l-3-2.3l-0.3,0.1c0.2,1,0.4,1.9,0.5,2.9
			s0,1.8,0,2.8H253c0-0.3,0-0.5,0-0.8c-0.1-0.9,0-2-0.5-2.7c-0.7-0.9-0.9-2-0.6-3.1c0-0.4-0.3-0.8-0.7-1c-1-0.1-2-0.3-3-0.4
			c-1.2,0-2,0.9-4.3,0.6c-1.6-0.3-2.8-1.1-5.9-0.5c-2.3,0.4-11.6,2.3-14.3,2.9c0.5,0.9,1.2,1.8,1.9,2.6c3.2,3.5,7.3,6.1,11.8,7.5
			c1.3,0.4,2.5,0.7,3.8,0.9l0.7,0.1c0.8,0.1,1.6,0.1,2.4,0.2c4.8,0.2,9.5-1.1,13.6-3.6c12.2-7.2,16.2-23,9-35.2
			C264.8,75.3,262.1,72.5,258.8,70.3"/>
		<path class="st0" d="M222.3,100.3c0.9-0.1,8.5-0.6,11.7-0.8c2.9-0.2,5.7-0.2,6.9-1.2c0.5-0.6,1.1-1.1,1.7-1.7
			c-0.2-0.3-0.4-0.6-0.7-0.9c-1-0.7-2.2-1.3-3.2-1.9c-0.3-0.2-0.7-0.4-0.7-0.7c-0.1-0.8-0.8-0.9-1.4-1.1c-1.2-0.4-2.4-0.8-3.6-1.2
			c-0.2-0.1-0.5-0.2-0.7-0.4l0.1-0.2c0.2,0.1,0.4,0.1,0.5,0.2c0.8,0.1,1.6,0.3,2.4,0.5c1,0.3,2.5,0.5,3,1.2c0.8,1.3,1.8,1.4,3.1,1.7
			c-0.3-1.1-0.6-2-0.9-3c-0.1-0.4-0.3-0.8-0.4-1.3c-0.3-1.1-0.5-2.2-0.9-3.2c-0.4-1.2-1-2.3-1.5-3.5c-0.5-0.9-1.1-1.8-1.7-2.7
			c-0.2-0.3-0.6-0.4-0.9-0.6l0.3-0.1c0-0.6-0.1-1.2-0.1-1.8c0.6-0.1,0.7,0,0.7,0.6c0.2,1.5,2,3.2,3.5,3.1c1.2-0.1,2.4-0.3,3.6-0.6
			c0.2,0,0.5-0.2,0.5-0.3c0-1.2,1-2.3,0.2-3.5c-0.5-0.7-0.4-1.6,0.2-2.2c0.4-0.4,0.7-0.9,0.9-1.4c0.1-0.2,0.2-0.6,0.1-0.6
			c-0.6-0.5-1.3-0.9-2-1.3c-1-0.4-2-0.6-3.1-0.9c-1.2-0.3-2.4-0.6-3.6-0.9c-0.1,0-0.2,0-0.2,0.1l0.3,0.9l-1.9-1.5l0.1-0.3
			c0.3,0,0.6,0,0.9,0c0.4,0.1,0.9,0.3,1.3,0.3c0.9,0.1,1.8,0.2,2.7,0.4c1.1,0.3,2.1,0.5,3.2,0.7c1.2,0.1,2.5,0.3,3.6,0.7
			c1.3,0.4,2.8,1,4.1-0.2c0.2-0.2,0.7-0.2,1-0.2l2.3-0.5c0-0.1,0-0.2,0-0.4l-1.2-0.7c0-0.1,0-0.2,0-0.2l2.6,0.3
			c-0.1-0.3-0.1-0.4-0.1-0.4c-2.9-1.5-6-2.3-9.2-2.6c-2.7-0.2-5.5,0-8.2,0.6c-3.8,0.8-7.4,2.7-10.1,5.5c-1.9,1.8-3.5,3.9-4.7,6.3
			c-3.9,6.4-4.8,14.1-2.6,21.2C220.6,100.5,221.4,100.4,222.3,100.3"/>
		<path class="st0" d="M206.4,136.6c-0.7-0.7,0-3.9,0-3.9s3,7.7,3.3,10.6l0.3,2.9C210.1,146.2,207.1,137.3,206.4,136.6 M204.5,127
			c-0.1,0.3-0.2,0.5-0.3,0.7c-0.3-2.1-0.9-4.2-1.8-6.2c0-0.5-0.1-1.1-0.2-1.6c-0.6-1.6-0.7-3.3-0.4-5c0.1-0.5,0.2-0.9,0.4-1.3
			c0.2,1.2,0.4,2.4,0.7,3.6c0.5,2.2,0.9,4.5,1.3,6.7C204.4,125,204.5,126,204.5,127 M194.6,94.2c-0.8-0.9-1.5-2-2-3.1
			c1.4,0.6,2.7,1.3,3.8,2.2c1.3,1.2,7.6,5.5,7.6,5.5C200.2,97.8,194.6,94.2,194.6,94.2 M179.7,81.5c-1.1,0-2.1,0.3-3.1,0.7
			c2-1.6,4.6-2.4,7.2-2.2L179.7,81.5z M215.6,102.5c1.2,0.2,2.4,0.3,3.6,0.3c-1.7,0.5-3.3,1-5,1.4l-0.5-0.8
			c-0.5-0.8-2.4-1.4-2.4-1.4S214.2,102.2,215.6,102.5 M217.4,150.3c-0.8-0.4-1.8-0.7-2.6-1c-1.7-0.8-3.2-1.7-3.8-3.8
			c-1-3.7-2.1-7.4-3.2-11.1c-0.4-1.3-1.1-2.5-1.5-3.9c-0.7-2.5-1.3-5-1.8-7.5c-0.7-3.4-1.3-6.8-1.8-10.3c-0.4-2.8-1.4-5.6-2.9-8
			c-0.7-1.2-1.5-2.3-2.2-3.4c0.4-0.7,1.3-0.9,2-0.5c0,0,0.1,0,0.1,0.1c2.5,1.2,4.8,2.7,6.7,4.7c0.8,0.8,1.7,1.4,2.8,1.7
			c1.8,0.7,3.8,0.5,5.5-0.4c1.1-0.5,2.3-0.9,3.4-1.1c0.6-0.1,4.9-1.1,6.5-1.5l0,0h0.1c4.6-0.7,9.2-1.5,13.8-2.1c1-0.1,1.9-0.1,2.9,0
			c0.9,0.1,1.8,0.5,2.7,0.6c1.3,0,2.4-1,2.4-2.3c0,0,0,0,0-0.1c-0.1-1.4-1.3-2.5-2.7-2.5c-0.2,0-0.4,0.1-0.7,0.1
			c-0.7,0.3-1.3,0.7-1.8,1.3c-0.6,0.5-1.4,0.8-2.2,0.9c-2.7,0.3-5.3,0.4-8,0.7c-2.3,0.2-4.5,0.5-6.8,0.8c-2.3,0.2-4.6,0.3-6.9,0.2
			c-1.2-0.1-2.4-0.6-3.6-0.6c-1.7-0.1-3.3-0.6-4.7-1.4c-1.8-1-3.6-2-5.4-2.9c-1.2-0.7-2.5-1.2-3.7-2c-2.4-1.6-4.7-3.3-7.1-5
			c-0.2-0.1-0.4-0.4-0.5-0.6c-0.1-1,0.9-2.2,1.2-3.4c0.3-1.3,0.3-2.7-0.2-4c-0.3-0.9-0.8-1.7-1.4-2.5c-1-1.1-2.4-1.6-3.8-1.5
			c-2.9,0.1-4.4,1-7.5,1.3c-2.6,0.2-4.9,1.7-6.3,3.9c-0.2,0.3-0.5,0.9-0.4,1c0.3,0.3,1.6-0.1,1.8-0.1c1.4-0.6,2.8-1.1,4.2-1.7
			c0.7-0.3,1.5-0.5,2.3-0.8c-0.4,0.8-0.9,1.6-1.5,2.3c-0.4,0.5-0.9,0.9-1.4,1.3c-2.5,1.8-6.1,1.5-8.9,1.5c-0.8,0-1.7,0.1-2.5,0.2
			c2.2,0.5,4.4,1.7,7.9,2.3c-0.4,0.1-0.9,0.2-1.3,0.3c-1.5,0.4-2.9,0.9-4.4,1.5c-0.7,0.3-1.5,0.3-2.2,0c-0.5-0.3-1-0.4-1.6-0.5
			c0.8,0.5,1.6,1.5,2.5,1.8c3.2,1.2,6.5,1.1,9.7,0.6c1.6-0.4,3.3-0.8,4.9-1.4c1.6-0.5,2.1-0.4,1.9,1.2c-0.2,1.4,0.1,2.9,0.9,4.1
			c0.4,0.7,1,1.4,1.5,2.1c1.1,1.8,2.1,3.7,3.4,5.4c0.8,1,1.3,2,0.7,3.2c-0.5,1-1.1,1.9-1.8,2.8c-1,1.3-1.6,3-1.5,4.6
			c0.2,1.1,0.3,2.1,0.3,3.2c-0.1,1.7-0.4,3.4-0.6,5.1c-0.1,1.2-0.3,2.4-0.5,3.5c-0.9,2.6-2.7,5.8-2.8,8.5c0,0.9-0.1,1.8-0.4,2.7
			c-1.3,3.2-2.6,6.4-4,9.5c-1.2,2.6-0.3,4.2,2.5,4.2c0.7,0,1.5,0.1,2.2,0.2h4.2c0.3,0,1.3,0,1.4,0c0.6-0.1,0.5-0.6,0.3-0.9
			c-0.4-0.3-0.8-0.5-1.2-0.7c-1.1-0.6-2.2-1-3.3-1.6c-1.1-0.4-1.6-1.6-1.3-2.7c0.2-0.6,0.4-1.2,0.8-1.7c1.5-2.8,3.3-5.4,4.3-8.5
			c0.7-2,1.3-4.1,2.8-5.7c0.2-0.3,0.4-0.7,0.5-1c0.7-1.7,1.5-3.3,2.2-5c0.4-0.9,1.1-1.1,1.8-0.3c0.7,0.7,1.2,1.5,1.5,2.4
			c0.8,2.2,1.4,4.5,1.9,6.8c0.3,2,1.2,3.9,2.5,5.5c1.4,1.5,2.2,3.4,2.5,5.5c0.2,1.7,0.3,3.5,0.4,5.3c0.1,1.5,0.6,2.3,2,2.3
			c2.7,0.1,5.4,0.1,8.1,0c0.4,0,1.2-0.2,1.1-0.7C218.5,150.9,218.2,150.7,217.4,150.3"/>
		<rect x="86" y="151.8" class="st0" width="271" height="2.2"/>
		<path d="M256.9,188.3c3.7,0,7.4,0,11.1,0c1.5,0.1,2.8-0.7,3.5-2.1c0.4-0.8,0.5-1.6,0.4-2.4c0-1.5-1-2.8-2.5-3.3
			c-0.7-0.2-1.5-0.3-2.3-0.3c-3.2,0-6.4,0-9.7,0H257L256.9,188.3z M256.9,176.8h9.3c0.7,0,1.3,0,2-0.1c1.7,0,3.1-1.2,3.5-2.8
			c0.1-0.5,0.2-1.1,0.1-1.7c-0.1-1.7-1.2-3.1-2.9-3.4c-0.5-0.1-1.1-0.2-1.6-0.2c-3.3,0-6.6,0-10,0h-0.4L256.9,176.8z M273,178.5
			c0.3,0.3,0.7,0.6,1,0.9c2.7,2.8,2.7,7.3-0.1,10.1c-0.7,0.7-1.6,1.2-2.5,1.6c-1.1,0.4-2.3,0.7-3.5,0.7c-5,0-9.9,0-14.9,0h-0.2
			v-26.5h14.5c2-0.1,3.9,0.4,5.6,1.5c3.3,2.2,4.2,6.6,2,9.8c-0.4,0.6-0.9,1.2-1.5,1.6L273,178.5"/>
		<path d="M128.3,178.5h0.3c2.8,0,5.7,0,8.5,0c1.2,0,2.4-0.2,3.5-0.6c1.3-0.4,2.3-1.5,2.6-2.8c0.1-0.6,0.2-1.2,0.2-1.9
			c0-1.8-1.1-3.5-2.9-4c-1.1-0.4-2.3-0.5-3.4-0.5c-2.8,0-5.5,0-8.3,0c-0.1,0-0.3,0-0.4,0L128.3,178.5z M128.2,181.9v9.8h-4.1v-26.5
			h12.6c2-0.1,4,0.3,5.9,1c3.2,1.2,5.3,4.4,4.9,7.8c-0.3,3.8-2.2,6.2-6,7.3l-0.5,0.1l7.2,10.3h-0.5c-1.3,0-2.6,0-3.9,0
			c-0.3,0-0.6-0.1-0.7-0.4c-2.1-3-4.2-6-6.3-9c-0.2-0.3-0.5-0.5-0.9-0.5c-2.4,0-4.8,0-7.1,0L128.2,181.9z"/>
		<path d="M175.1,170.2l-3.1,2.4c-0.5-0.5-1-1.1-1.5-1.6c-1.8-1.7-4.2-2.7-6.7-2.6c-2.8,0.1-5.3,1.4-7.1,3.5
			c-3.7,4.2-3.3,10.6,0.8,14.3c1.1,1,2.5,1.7,4,2.2c3.8,1.1,6.9-0.2,9.6-2.9c0.5-0.4,0.8-1.1,0.7-1.7c-0.1-1.1,0-2.2,0-3.4h-7.4
			v-3.4H176v0.5c0,2.6,0,5.1,0,7.7c0,0.4-0.1,0.8-0.4,1.2c-2.1,3-5.3,5.1-8.8,5.8c-7.5,1.4-14.7-3.5-16.1-10.9
			c-1.4-7.5,3.5-14.7,10.9-16.1c0.2,0,0.3-0.1,0.5-0.1C167.4,164.1,171.7,166,175.1,170.2"/>
		<path d="M325.2,178.5c0-5.5-4.6-10.2-9.9-10.2s-10,4.7-10,10.1c0,5.5,4.4,10,9.9,10S325.2,184,325.2,178.5L325.2,178.5 M329,178.5
			c0,7.6-6.2,13.8-13.8,13.8c-7.6,0-13.8-6.2-13.8-13.8c0-7.6,6.2-13.8,13.8-13.8c0,0,0,0,0,0C322.9,164.7,329,170.9,329,178.5
			C329,178.5,329,178.5,329,178.5"/>
		<polygon points="337.3,178.3 352.8,178.3 352.8,165.3 357,165.3 357,191.7 352.8,191.7 352.8,181.8 337.4,181.8 337.4,191.7 
			333.2,191.7 333.2,165.3 337.3,165.3 		"/>
		<path d="M242.4,182.3l-5-12.6l-4.9,12.6H242.4z M224.3,191.7l1.3-3.4c2.9-7.6,5.8-15.1,8.8-22.7c0.1-0.3,0.3-0.5,0.6-0.4
			c1.6,0,3.2,0,4.9,0c0.3,0,0.5,0.1,0.6,0.4c3.3,8.6,6.6,17.1,9.9,25.7c0.1,0.1,0.1,0.2,0.2,0.4c-1.5,0-2.9,0-4.3,0
			c-0.1,0-0.2-0.2-0.3-0.3c-0.7-1.8-1.4-3.5-2.1-5.3c-0.1-0.3-0.3-0.5-0.6-0.4c-3.9,0-7.8,0-11.7,0c-0.3,0-0.6,0.1-0.6,0.4
			c-0.7,1.7-1.4,3.5-2,5.2c-0.1,0.3-0.4,0.5-0.7,0.4C226.9,191.8,225.6,191.8,224.3,191.7"/>
		<path d="M86,165.3c1.5,0,2.8,0,4.2,0c0.1,0,0.3,0.2,0.4,0.4c1.5,3.7,2.9,7.3,4.3,11l4,10.3l0.2,0.4c0.1-0.2,0.2-0.3,0.2-0.5
			c2.8-7,5.5-14.1,8.3-21.1c0.1-0.3,0.3-0.5,0.6-0.4c1.3,0,2.6,0,4,0l-0.2,0.4c-3.4,8.6-6.7,17.1-10,25.6c-0.1,0.3-0.3,0.4-0.6,0.4
			c-1.7,0-3.3,0-5,0c-0.2,0-0.4-0.1-0.5-0.3c-3.3-8.6-6.7-17.2-10-25.8C86.1,165.5,86.1,165.4,86,165.3"/>
		<polygon points="190,165.3 194.1,165.3 194.1,188.3 209.7,188.3 209.7,191.7 190,191.7 		"/>
		<polygon points="280.6,191.7 280.6,165.3 284.8,165.3 284.8,188.3 300.4,188.3 300.4,191.7 		"/>
		<rect x="115" y="165.3" width="4.1" height="26.5"/>
		<rect x="180.9" y="165.3" width="4.1" height="26.5"/>
		<path d="M86,207c0.4-1.7,1.7-2.4,3.3-2.7c1.6-0.3,3.3-0.1,4.8,0.5c0.5,0.3,1.1,0.6,1.6,0.9l-0.9,1.5c-1.4-1.2-3.2-1.7-4.9-1.4
			c-0.6,0.1-1.1,0.3-1.6,0.6c-0.6,0.3-0.8,1-0.5,1.6c0.1,0.2,0.3,0.4,0.5,0.5c0.8,0.4,1.7,0.7,2.6,0.8c0.9,0.2,1.8,0.4,2.7,0.7
			c0.5,0.1,0.9,0.3,1.3,0.6c1.2,0.8,1.6,2.5,0.7,3.7c-0.1,0.2-0.3,0.4-0.5,0.5c-0.8,0.7-1.8,1.1-2.9,1.1c-1.5,0.2-3.1,0-4.5-0.5
			c-0.6-0.2-1.2-0.6-1.6-1l0.9-1.4c1.3,1.1,3,1.6,4.6,1.5c0.7,0,1.4-0.2,2-0.6c1-0.6,1-1.8-0.1-2.3c-0.8-0.3-1.6-0.6-2.5-0.7
			c-0.9-0.2-1.9-0.4-2.8-0.7c-0.8-0.2-1.4-0.6-1.9-1.2c-0.2-0.3-0.4-0.7-0.5-1.1V207z"/>
		<path d="M211.8,210.1c1.5,0,2.9,0,4.3,0c0.3,0,0.5-0.1,0.8-0.2c0.9-0.2,1.5-1,1.5-2c0.1-0.9-0.6-1.7-1.5-1.9
			c-0.2-0.1-0.5-0.1-0.7-0.1c-1.4,0-2.8,0-4.2,0c0,0-0.1,0-0.1,0.1L211.8,210.1z M210,204.5c2.2,0,4.3,0,6.5,0
			c0.4,0,0.8,0.1,1.2,0.2c1.8,0.5,2.9,2.4,2.4,4.2c-0.1,0.2-0.1,0.4-0.2,0.6c-0.4,0.8-1.1,1.4-2,1.7l-0.5,0.2l1.5,2.2l1.6,2.2
			c-0.7,0-1.4,0-2,0c-0.1,0-0.2-0.2-0.3-0.3c-0.8-1.2-1.7-2.4-2.5-3.6c-0.1-0.2-0.4-0.4-0.6-0.3c-1,0-2.1,0-3.2,0v4.2H210L210,204.5
			z"/>
		<polygon points="116.9,204.5 126,204.5 126,205.9 118.7,205.9 118.7,209.4 124.9,209.4 124.9,210.9 118.7,210.9 118.7,214.4 
			126,214.4 126,215.8 116.9,215.8 		"/>
		<polygon points="326.3,214.4 326.3,215.8 317.1,215.8 317.1,204.5 326.3,204.5 326.3,205.9 318.9,205.9 318.9,209.4 325.2,209.4 
			325.2,210.9 318.9,210.9 318.9,214.4 		"/>
		<path d="M348,213.1c1.6,1.3,3.7,1.8,5.7,1.3c0.5-0.1,0.9-0.3,1.3-0.6c0.5-0.4,0.6-1.1,0.2-1.6c-0.1-0.1-0.2-0.2-0.3-0.3
			c-0.7-0.4-1.5-0.7-2.3-0.8c-1.1-0.2-2.1-0.5-3.2-0.7c-0.4-0.1-0.8-0.3-1.2-0.6c-1.2-0.8-1.5-2.5-0.7-3.7c0.1-0.1,0.2-0.2,0.3-0.3
			c0.7-0.7,1.7-1.2,2.7-1.3c1.6-0.3,3.2-0.1,4.7,0.5c0.5,0.3,1.1,0.6,1.5,0.9l-0.9,1.5c-0.8-0.8-1.9-1.3-3-1.4
			c-1.1-0.2-2.3-0.1-3.3,0.4c-0.5,0.2-0.8,0.7-0.8,1.3c0,0.5,0.3,0.9,0.7,1.1c0.7,0.3,1.4,0.5,2.1,0.7c1,0.3,2.1,0.5,3.1,0.7
			c0.5,0.1,0.9,0.3,1.3,0.6c1.2,0.8,1.6,2.5,0.7,3.7c-0.1,0.2-0.3,0.4-0.5,0.5c-0.8,0.7-1.8,1.1-2.9,1.1c-1.5,0.2-3.1,0-4.5-0.5
			c-0.6-0.2-1.2-0.6-1.6-1.1L348,213.1"/>
		<path d="M178.5,204.4h1.7c0,0.2,0,0.3,0,0.5c0,2,0,4.1,0,6.1c0,1.8,1.5,3.2,3.4,3.2c1.7,0,3-1.3,3.2-3c0-2.1,0-4.2,0-6.3
			c0-0.2,0-0.3,0-0.5h1.8c0,0.2,0,0.3,0,0.4c0,2.1,0,4.1,0,6.1c0,0.8-0.1,1.6-0.4,2.3c-0.7,1.6-2.2,2.6-3.9,2.7c-1,0.1-2,0-2.9-0.3
			c-1.7-0.6-2.8-2.2-2.9-4C178.4,209.3,178.5,206.9,178.5,204.4"/>
		<path d="M157.4,206.6l-1.3,1c-0.8-1.1-2.1-1.8-3.5-1.8c-1.1,0-2.2,0.5-2.9,1.4c-1.7,1.7-1.6,4.4,0.1,6.1c0,0,0,0,0,0
			c0.8,0.9,2.1,1.4,3.3,1.3c1.2-0.1,2.4-0.8,3.1-1.8l1.3,1c-2,2.6-5.7,3-8.3,1c-2.6-2-3-5.7-1-8.3c0.8-1,1.8-1.7,3-2
			C153.5,203.8,156,204.6,157.4,206.6"/>
		<polygon points="273.3,205.9 269.6,205.9 269.6,215.8 267.8,215.8 267.8,205.9 263.9,205.9 263.9,204.5 273.3,204.5 		"/>
		<rect x="241.5" y="204.5" width="1.7" height="11.4"/>
		<rect x="294" y="204.5" width="1.7" height="11.4"/>
		<polygon class="st0" points="236.3,13.9 239.5,20.5 246.8,19.6 241.5,24.6 244.6,31.3 238.2,27.8 232.8,32.8 234.2,25.6 
			227.7,22.1 235,21.1 		"/>
		<polygon class="st0" points="193.9,38.6 200.4,41.9 205.6,36.8 204.4,44 211,47.4 203.7,48.5 202.5,55.8 199.2,49.2 191.9,50.3 
			197.2,45.1 		"/>
		<polygon class="st0" points="286.3,32.8 284.2,39.9 290.3,44 283,44.2 280.9,51.3 278.4,44.3 271.1,44.5 276.9,40.1 274.4,33.1 
			280.5,37.3 		"/>
	</g>
</g>
</svg>
