<svg id="Livello_1" data-name="Livello 1" xmlns="http://www.w3.org/2000/svg" viewBox="0 0 443 230"><path d="M110.91,68.71v76.4H219.09V68.71Zm18.88,32.17-1.39-1-1.39,1,.53-1.64-1.39-1h1.72l.53-1.64.53,1.64h1.73l-1.4,1Zm12.76,4.73-1.39-1-1.39,1,.53-1.63-1.39-1h1.72l.53-1.64.53,1.64h1.72L142,104Zm6.35,6.81-1.4-1-1.39,1,.53-1.64-1.39-1H147l.53-1.64.54,1.64h1.72l-1.4,1Zm5.57,17.11-1.39-1-1.39,1,.53-1.64-1.39-1h1.72l.53-1.64.53,1.64h1.72l-1.39,1Zm.31-11.65.53,1.64-1.39-1-1.39,1,.53-1.64-1.39-1h1.72l.53-1.63.53,1.63h1.72Zm14.06,16.39-1.4-1-1.39,1,.53-1.64-1.39-1h1.72l.53-1.64.54,1.64h1.72l-1.39,1Zm5.57-8-1.39-1-1.39,1,.53-1.64-1.39-1h1.72L173,122l.53,1.63h1.72l-1.39,1Zm27.31-40.49-2.34-1.7-2.33,1.7.89-2.75-2.34-1.7h2.89l.89-2.74.89,2.74h2.89l-2.34,1.7Z"/><path d="M223.91,68.71v76.4H332.09V68.71Zm18.88,32.17-1.39-1-1.39,1,.53-1.64-1.39-1h1.72l.53-1.64.53,1.64h1.73l-1.4,1Zm12.76,4.73-1.39-1-1.39,1,.53-1.63-1.39-1h1.72l.53-1.64.53,1.64h1.72L255,104Zm6.35,6.81-1.4-1-1.39,1,.53-1.64-1.39-1H260l.53-1.64.54,1.64h1.72l-1.4,1Zm5.57,17.11-1.39-1-1.39,1,.53-1.64-1.39-1h1.72l.53-1.64.53,1.64h1.72l-1.39,1Zm.31-11.65.53,1.64-1.39-1-1.39,1,.53-1.64-1.39-1h1.72l.53-1.63.53,1.63h1.72Zm14.06,16.39-1.4-1-1.39,1,.53-1.64-1.39-1h1.72l.53-1.64.54,1.64h1.72l-1.39,1Zm5.57-8-1.39-1-1.39,1,.53-1.64-1.39-1h1.72L286,122l.53,1.63h1.72l-1.39,1Zm27.31-40.49-2.34-1.7-2.33,1.7.89-2.75-2.34-1.7h2.89l.89-2.74.89,2.74h2.89l-2.34,1.7Z"/><path d="M148.18,161.07h-1.56l-.81-2.8h-3.25l-.82,2.8h-1.47l3-9.69h1.87Zm-5.26-4h2.53l-.92-3.2c-.12-.4-.23-.81-.34-1.25-.05.25-.16.67-.33,1.25Z"/><path d="M156.36,161.07h-6.89v-9.69h1.47v8.45h5.42Z"/><path d="M164.81,161.07h-1.57l-.8-2.8h-3.26l-.82,2.8H156.9l3-9.69h1.87Zm-5.27-4h2.54l-.93-3.2c-.12-.4-.23-.81-.33-1.25-.06.25-.17.67-.34,1.25Z"/><path d="M167.24,160.88a3.24,3.24,0,0,1-1.32-1.19,3.49,3.49,0,0,1-.5-1.82h1.5a2.27,2.27,0,0,0,.69,1.61,2.32,2.32,0,0,0,1.64.58,2.5,2.5,0,0,0,1.55-.44,1.39,1.39,0,0,0,.59-1.17,1.14,1.14,0,0,0-.45-.95,4.18,4.18,0,0,0-1.4-.57l-1.12-.28a4.39,4.39,0,0,1-1.94-1,2.26,2.26,0,0,1-.73-1.75,2.4,2.4,0,0,1,.45-1.42,3,3,0,0,1,1.23-1,4.45,4.45,0,0,1,3.53,0,3,3,0,0,1,1.74,2.66h-1.51a1.82,1.82,0,0,0-.63-1.29,2.09,2.09,0,0,0-1.45-.49,2.25,2.25,0,0,0-1.31.38,1.19,1.19,0,0,0-.54,1,1.14,1.14,0,0,0,.41.94,3.58,3.58,0,0,0,1.28.57l1.26.32c1.79.46,2.69,1.37,2.69,2.73a2.69,2.69,0,0,1-.46,1.51,3.15,3.15,0,0,1-1.3,1.07,4.65,4.65,0,0,1-1.93.38A4.39,4.39,0,0,1,167.24,160.88Z"/><path d="M181.47,161.07H179.6l-3.34-4.36-.61.7v3.66H174.2v-9.69h1.45v4.15l.47-.61,3-3.54h1.76l-3.67,4.23Z"/><path d="M189.74,161.07h-1.57l-.8-2.8h-3.25l-.82,2.8h-1.47l3-9.69h1.87Zm-5.26-4H187l-.93-3.2c-.12-.4-.23-.81-.33-1.25-.05.25-.17.67-.33,1.25Z"/><path d="M261,161.07h-1.57l-.8-2.8H255.4l-.81,2.8h-1.47l3-9.69H258Zm-5.27-4h2.54l-.93-3.2c-.12-.4-.23-.81-.33-1.25-.06.25-.17.67-.34,1.25Z"/><path d="M269.2,161.07h-6.89v-9.69h1.47v8.45h5.42Z"/><path d="M277.65,161.07h-1.57l-.8-2.8H272l-.81,2.8h-1.47l3-9.69h1.87Zm-5.27-4h2.54l-.93-3.2c-.12-.4-.23-.81-.33-1.25-.06.25-.17.67-.33,1.25Z"/><path d="M280.09,160.88a3.2,3.2,0,0,1-1.33-1.19,3.68,3.68,0,0,1-.5-1.82h1.51a2.22,2.22,0,0,0,.68,1.61,2.33,2.33,0,0,0,1.65.58,2.47,2.47,0,0,0,1.54-.44,1.39,1.39,0,0,0,.59-1.17,1.14,1.14,0,0,0-.45-.95,4.21,4.21,0,0,0-1.39-.57l-1.13-.28a4.3,4.3,0,0,1-1.93-1,2.27,2.27,0,0,1-.74-1.75,2.4,2.4,0,0,1,.45-1.42,3,3,0,0,1,1.23-1,4.17,4.17,0,0,1,1.74-.36,4.06,4.06,0,0,1,1.79.37,3,3,0,0,1,1.23,1.06,3.17,3.17,0,0,1,.52,1.6H284a1.82,1.82,0,0,0-.63-1.29,2.08,2.08,0,0,0-1.44-.49,2.26,2.26,0,0,0-1.32.38,1.19,1.19,0,0,0-.54,1,1.17,1.17,0,0,0,.41.94,3.58,3.58,0,0,0,1.28.57l1.26.32c1.79.46,2.69,1.37,2.69,2.73a2.61,2.61,0,0,1-.46,1.51,3.05,3.05,0,0,1-1.29,1.07,4.73,4.73,0,0,1-1.94.38A4.35,4.35,0,0,1,280.09,160.88Z"/><path d="M294.31,161.07h-1.87l-3.34-4.36-.6.7v3.66H287v-9.69h1.46v4.15l.47-.61,3-3.54h1.76l-3.67,4.23Z"/><path d="M302.58,161.07H301l-.81-2.8H297l-.82,2.8h-1.47l3-9.69h1.87Zm-5.26-4h2.53l-.92-3.2c-.12-.4-.24-.81-.34-1.25,0,.25-.16.67-.33,1.25Z"/></svg>