<svg id="Livello_1" data-name="Livello 1" xmlns="http://www.w3.org/2000/svg" viewBox="0 0 443 230"><path d="M140.07,73.44c-.5-1.27-.84-1.52-1.63-1.74a3.52,3.52,0,0,0-.86-.09c-.13,0-.18-.07-.18-.16s.23-.16.59-.16c1.09,0,2.31.07,2.58.07s1.2-.07,2.05-.07c.41,0,.62,0,.62.16s-.07.16-.23.16a2.64,2.64,0,0,0-.86.11.44.44,0,0,0-.29.45,6.38,6.38,0,0,0,.45,1.45l4.61,12c1.31-3,4.34-10.92,4.84-12.54a3.4,3.4,0,0,0,.2-.86.56.56,0,0,0-.29-.52,2.87,2.87,0,0,0-.86-.09c-.14,0-.25,0-.25-.14s.14-.18.5-.18c.9,0,1.94.07,2.21.07s1.11-.07,1.77-.07c.24,0,.38,0,.38.16s-.09.16-.27.16a2.07,2.07,0,0,0-1.09.27c-.29.2-.63.59-1.24,2.12-.25.64-1.38,3.35-2.53,6.13-1.38,3.3-2.4,5.74-2.92,6.85-.63,1.36-.72,1.72-1,1.72s-.38-.32-.81-1.4Zm18.52,6c0-3,0-3.53-.05-4.14s-.18-1-.65-1c-.23,0-.39,0-.52-.07s-.25-.07-.25-.16.09-.15.34-.15c.7,0,2,.06,2,.06s1.4-.06,2-.06c.22,0,.34,0,.34.15s-.07.14-.25.16-.25,0-.41,0c-.65.09-.72.43-.77,1.08s0,1.13,0,4.12V82.8c0,1.74,0,3.32.09,4.14.09.65.18.9.77,1a5.22,5.22,0,0,0,.86.1c.2,0,.25.06.25.15s-.09.16-.32.16c-1.15,0-2.46-.07-2.58-.07s-1.4.07-2,.07c-.21,0-.36,0-.36-.16s.09-.15.29-.15A3.19,3.19,0,0,0,158,88c.39-.09.46-.54.52-1.09a37.74,37.74,0,0,0,.12-4.11Zm9.22,0c0-3,0-3.53,0-4.14s-.21-1-.91-1.09a4.12,4.12,0,0,0-.54,0c-.16,0-.25,0-.25-.14s.07-.15.27-.15c1,0,2.35.06,2.4.06s1.74-.06,2.37-.06a6.43,6.43,0,0,1,3.71.85,3.45,3.45,0,0,1,1.35,2.76,5.65,5.65,0,0,1-2.39,4.28c1.65,2,3,3.7,4.16,4.9A3.76,3.76,0,0,0,180.33,88l.71,0c.18,0,.24.06.24.15s-.09.16-.4.16h-1.59a5.08,5.08,0,0,1-2-.27c-1-.41-1.63-1.42-2.81-2.94-.88-1.08-1.78-2.3-2.17-2.78a.31.31,0,0,0-.27-.13l-2.33,0c-.09,0-.11,0-.11.12v.31c0,1.81,0,3.46.11,4.28.07.54.14,1,.89,1.08.22,0,.47,0,.65,0s.3.06.3.13-.1.18-.32.18c-1.18,0-2.44-.07-2.53-.07-.36,0-1.36.07-2,.07-.23,0-.32,0-.32-.18s.14-.13.27-.13a1.77,1.77,0,0,0,.5,0c.39-.07.52-.32.59-.86.11-.81.09-2.67.09-4.36Zm1.74,1.6c0,.12,0,.23.11.27a5.78,5.78,0,0,0,2,.3,2.69,2.69,0,0,0,1.51-.34,3.27,3.27,0,0,0,1.13-2.87c0-2.47-1.31-3.82-3.32-3.82a5.92,5.92,0,0,0-1.31.11.2.2,0,0,0-.14.2Zm25.21,5.7c0,.9,0,.93-.27,1.06a10.31,10.31,0,0,1-4.16.86,10.17,10.17,0,0,1-6.63-2,7.54,7.54,0,0,1,1-11.87,9.87,9.87,0,0,1,5-1.16,18,18,0,0,1,3.23.32,15.71,15.71,0,0,0,1.72.2c.18,0,.18.09.18.19a24.73,24.73,0,0,0-.16,2.93c0,.32,0,.41-.18.41s-.14-.13-.16-.27a3,3,0,0,0-.43-1.4c-.52-.75-2.15-1.58-4.68-1.58a6.23,6.23,0,0,0-4.16,1.19,6,6,0,0,0-1.9,4.84,7.85,7.85,0,0,0,2.06,5.25,7.06,7.06,0,0,0,5.13,2.1,5.41,5.41,0,0,0,2.15-.39.75.75,0,0,0,.39-.67V83.43c0-1.49-.12-1.79-.91-1.9a4.12,4.12,0,0,0-.54,0c-.18,0-.27-.09-.27-.16s.09-.16.34-.16c.9,0,2.21,0,2.3,0s1.43,0,2,0c.22,0,.31,0,.31.16s-.06.16-.27.16a2.55,2.55,0,0,0-.38,0c-.55.07-.68.47-.73,1.13s0,1.22,0,2Zm6.31-7.3c0-3,0-3.53,0-4.14s-.18-1-.65-1c-.23,0-.39,0-.52-.07s-.25-.07-.25-.16.09-.15.34-.15c.7,0,2,.06,2.05.06s1.41-.06,2-.06c.22,0,.34,0,.34.15s-.07.14-.25.16-.25,0-.41,0c-.65.09-.72.43-.77,1.08s0,1.13,0,4.12V82.8c0,1.74,0,3.32.09,4.14.09.65.18.9.77,1a5.22,5.22,0,0,0,.86.1c.2,0,.25.06.25.15s-.09.16-.32.16c-1.15,0-2.46-.07-2.58-.07s-1.4.07-2,.07c-.2,0-.36,0-.36-.16s.09-.15.29-.15a3.19,3.19,0,0,0,.54-.07c.39-.09.46-.54.52-1.09a37.74,37.74,0,0,0,.12-4.11Zm11.05,3.43c0,2.6.09,3.91.48,4.28s.81.45,2.37.45c1,0,1.9,0,2.4-.63a3.14,3.14,0,0,0,.43-1.14c0-.18.06-.27.18-.27s.13.07.13.3a13.92,13.92,0,0,1-.27,2c-.13.45-.11.57-1.2.57-1.53,0-3.23-.12-5.49-.12-.75,0-1.2.07-2,.07-.23,0-.36,0-.36-.18s.07-.13.25-.13a2,2,0,0,0,.54,0c.38-.07.52-.52.59-1.06a37.79,37.79,0,0,0,.09-4.16V79.41c0-3,0-3.48-.05-4.09s-.13-1-.9-1.14a5.06,5.06,0,0,0-.57,0c-.15,0-.24-.07-.24-.16s.11-.15.33-.15c.95,0,2.31.06,2.36.06.31,0,1.69-.06,2.32-.06.23,0,.3.06.3.15s-.12.16-.25.16a5,5,0,0,0-.61,0c-.63.09-.77.45-.82,1.11s0,1.1,0,4.09Zm19.58-1.13a.25.25,0,0,0-.23.18l-1.35,4a4.82,4.82,0,0,0-.32,1.51c0,.45.43.66.82.66h.2c.23,0,.29,0,.29.13s-.2.18-.4.18c-.55,0-1.45-.07-1.7-.07s-1.49.07-2.55.07c-.3,0-.43,0-.43-.18s.11-.13.31-.13.36,0,.55,0c1-.14,1.49-1,1.89-2.12l5.14-14c.27-.75.36-.89.49-.89s.23.12.5.82c.34.86,3.89,10.19,5.27,13.63.81,2,1.47,2.37,1.94,2.51a3.12,3.12,0,0,0,.88.14c.14,0,.25,0,.25.13s-.2.18-.45.18-2,0-3.55,0c-.43,0-.68,0-.68-.16s.07-.14.16-.16.27-.25.14-.61l-2.11-5.56a.2.2,0,0,0-.2-.14Zm4.57-.81c.11,0,.11-.07.09-.16l-2.15-6.1c-.11-.34-.23-.34-.34,0l-2,6.1c0,.11,0,.16.07.16Zm10.3-1.49c0-3,0-3.53,0-4.14s-.2-.93-.88-1.06c-.18,0-.5,0-.54,0-.21,0-.3-.07-.3-.16s.14-.15.34-.15c.95,0,2.31.06,2.35.06.54,0,1.29-.06,2.17-.06,3.39,0,4.07,1.87,4.07,2.84a4.34,4.34,0,0,1-1.9,3.49c1.52.45,3.46,1.83,3.46,4s-1.69,4.21-5.13,4.21c-.36,0-.81-.05-1.4-.05l-1.27-.07c-.7,0-1.29.07-2,.07-.21,0-.32,0-.32-.13s0-.18.32-.18a1.16,1.16,0,0,0,.4,0c.39-.07.52-.54.59-1.08a41.39,41.39,0,0,0,.11-4.14Zm1.77.4c0,.16,0,.18.11.23a6.33,6.33,0,0,0,1.13.07c1.15,0,1.49-.07,1.92-.54a2.82,2.82,0,0,0,.59-1.81c0-1.56-.7-3.3-2.62-3.3a3.76,3.76,0,0,0-.86.11c-.2,0-.27.09-.27.2Zm0,2c0,1.42,0,3.91,0,4.09.07,1,0,1.29.72,1.58a4.56,4.56,0,0,0,1.68.3,2.47,2.47,0,0,0,2.66-2.56,4.71,4.71,0,0,0-1.94-3.93,3.17,3.17,0,0,0-1.54-.5,9.26,9.26,0,0,0-1.49,0c-.07,0-.11,0-.11.14Zm13.43,1.08c0,2.6.09,3.91.47,4.28s.82.45,2.38.45c1,0,1.9,0,2.39-.63a2.81,2.81,0,0,0,.43-1.14c0-.18.07-.27.18-.27s.14.07.14.3a15.46,15.46,0,0,1-.27,2c-.14.45-.12.57-1.2.57-1.54,0-3.23-.12-5.49-.12-.75,0-1.2.07-2,.07-.23,0-.37,0-.37-.18s.07-.13.25-.13a2.09,2.09,0,0,0,.55,0c.38-.07.52-.52.58-1.06a35.42,35.42,0,0,0,.09-4.16V79.41c0-3,0-3.48,0-4.09s-.14-1-.91-1.14a4.79,4.79,0,0,0-.56,0c-.16,0-.25-.07-.25-.16s.11-.15.34-.15c.95,0,2.31.06,2.35.06.32,0,1.7-.06,2.33-.06.23,0,.29.06.29.15s-.11.16-.25.16a5.29,5.29,0,0,0-.61,0c-.63.09-.76.45-.81,1.11s0,1.1,0,4.09Zm8-1.76a7.63,7.63,0,0,1,7.91-7.51c4.48,0,7.89,2.67,7.89,7.22a7.69,7.69,0,0,1-8,7.84A7.35,7.35,0,0,1,269.77,81.08Zm13.68.27c0-4.54-2.8-7.07-5.9-7.07s-5.68,1.94-5.68,6.21c0,4.43,2.47,7.37,6.27,7.37C279.65,87.86,283.45,87.09,283.45,81.35Zm17.18-1.45c.07,0,.14,0,.14-.11v-.41c0-3,0-3.5,0-4.11s-.13-.93-.88-1.06a3.33,3.33,0,0,0-.56,0c-.16,0-.27-.07-.27-.16s.11-.15.31-.15c.95,0,2.28.06,2.38.06s1.35-.06,2-.06c.23,0,.36,0,.36.15s-.07.16-.25.16a2.38,2.38,0,0,0-.45,0c-.61.09-.7.45-.75,1.08s0,1.13,0,4.12V82.8c0,1.85,0,3.32.09,4.14.07.54.18,1,.77,1.06a6.7,6.7,0,0,0,.79.07c.18,0,.3.06.3.15s-.12.16-.34.16c-1.13,0-2.44-.07-2.56-.07s-1.4.07-2,.07c-.23,0-.34,0-.34-.18s.07-.13.25-.13a1.84,1.84,0,0,0,.52,0c.38-.07.5-.56.57-1.08a38.9,38.9,0,0,0,.11-4.07v-2a.13.13,0,0,0-.14-.13h-8.2c-.07,0-.12,0-.12.13v2a36.38,36.38,0,0,0,.12,4.11c.06.5.18,1,.77,1a7.18,7.18,0,0,0,.81.07c.16,0,.27.06.27.15s-.09.16-.29.16c-1.16,0-2.49-.07-2.6-.07s-1.45.07-2,.07c-.22,0-.36,0-.36-.16s.05-.15.25-.15a2.5,2.5,0,0,0,.54-.07c.41-.09.5-.52.57-1a35.8,35.8,0,0,0,.11-4.18V79.45c0-3,0-3.57,0-4.18s-.2-1-.85-1.09c-.21,0-.43,0-.62,0s-.24-.07-.24-.14.11-.15.34-.15c1,0,2,.06,2.35.06.09,0,1.4-.06,2-.06.23,0,.34,0,.34.15s-.09.14-.23.14a2.24,2.24,0,0,0-.45,0c-.56.1-.7.48-.74,1.11s0,1.11,0,4.09v.41c0,.11.07.11.14.11Z"/><path d="M28.83,100.46c0-3.53,0-4.16,0-4.89s-.22-1.13-1-1.29a4.72,4.72,0,0,0-.77-.06c-.09,0-.18,0-.18-.14s.11-.18.36-.18c1,0,2.38.07,2.56.07.49,0,1.81-.07,2.85-.07,2.82,0,3.84.95,4.2,1.29a4.1,4.1,0,0,1,1.13,3c0,2.94-2.35,5.11-5.56,5.11a3.93,3.93,0,0,1-.48,0c-.11,0-.24,0-.24-.16s.13-.21.61-.21A3.72,3.72,0,0,0,36.2,99a4.66,4.66,0,0,0-1.27-3.3,3.94,3.94,0,0,0-3.1-1.13,2.84,2.84,0,0,0-1,.13c-.13.05-.18.21-.18.43v9.29c0,2.17,0,4,.11,4.91.07.66.21,1.15.89,1.24a8.51,8.51,0,0,0,1,.09c.14,0,.18.07.18.14s-.11.18-.36.18c-1.24,0-2.67-.07-2.78-.07s-1.49.07-2.17.07c-.25,0-.36,0-.36-.18s.05-.14.18-.14a3.17,3.17,0,0,0,.68-.09c.45-.09.56-.58.65-1.24.12-1,.12-2.74.12-4.91Zm13.52,5c-.12,0-.18.07-.23.18l-1,2.83a5.56,5.56,0,0,0-.39,1.61c0,.4.25.58.75.58h.16c.2,0,.27.07.27.16s-.18.16-.34.16c-.5,0-1.54-.07-1.79-.07s-1.22.07-2.17.07c-.25,0-.36,0-.36-.16s.09-.16.27-.16a3.54,3.54,0,0,0,.45,0c1-.09,1.36-.84,1.74-1.79L44.25,97c.24-.65.31-.77.47-.77s.2.09.45.73,3.39,8.63,4.59,11.46c.75,1.78,1.4,2.08,1.72,2.19a2.2,2.2,0,0,0,.77.11c.16,0,.27,0,.27.16s-.09.16-.34.16-1.92,0-3.44,0c-.42,0-.56,0-.56-.15a.19.19,0,0,1,.16-.16c.09,0,.22-.16.09-.5l-1.79-4.54a.2.2,0,0,0-.18-.12Zm3.84-.79c.09,0,.09-.07.07-.13l-1.79-5c-.11-.32-.13-.32-.25,0l-1.69,5c-.05.09,0,.13,0,.13Zm8.5,6.06c-.29-.13-.29-.22-.29-.77,0-1,.07-1.81.09-2.12s.07-.32.18-.32.16.07.16.23a3.25,3.25,0,0,0,.06.68,2.73,2.73,0,0,0,2.94,2,2.53,2.53,0,0,0,2.78-2.42c0-1.29-.58-2.08-2.23-3.41l-.91-.7c-2.17-1.74-2.62-2.94-2.62-4.28,0-2.08,1.65-3.48,4.18-3.48a8,8,0,0,1,1.83.18,4,4,0,0,0,.77.12c.16,0,.21,0,.21.13s-.1.88-.1,2.19c0,.34,0,.48-.15.48s-.14-.09-.16-.25A3,3,0,0,0,61.16,98c-.12-.21-.64-1.06-2.54-1.06a2.16,2.16,0,0,0-2.37,2.17c0,1.06.54,1.71,2.42,3.14l.52.41c2.35,1.8,3,3,3,4.61a4,4,0,0,1-1.72,3.21,5.67,5.67,0,0,1-3,.79A6.32,6.32,0,0,1,54.69,110.74Zm17.07-5.33c0,1.74,0,3.34.11,4.18.07.54.12.86.68,1a4.3,4.3,0,0,0,.88.09c.18,0,.27.07.27.14s-.06.18-.29.18c-1.15,0-2.49-.07-2.58-.07s-1.42.07-2,.07c-.25,0-.34,0-.34-.16s.07-.16.25-.16a4.18,4.18,0,0,0,.5,0c.43-.07.5-.34.59-1.11s.09-2.44.09-4.13V97.34c-.75,0-2,0-2.85,0-1.45,0-1.77.25-2.08.72a3.1,3.1,0,0,0-.34.7c-.07.16-.11.18-.2.18s-.12-.09-.12-.2.32-1.63.45-2.24c.07-.27.14-.36.21-.36s.59.2,1,.25c.79.09,1.43.11,1.45.11h7.41a9.47,9.47,0,0,0,1.63-.11,2.51,2.51,0,0,1,.43-.09c.09,0,.14.11.14.2,0,.63,0,2.13,0,2.31s-.09.27-.16.27-.15-.09-.15-.27a2,2,0,0,0,0-.32c-.09-.9-.38-1.13-2.66-1.15l-2.22,0Zm18-5c0-3.53,0-4.16,0-4.89s-.23-1.13-1-1.29a4.81,4.81,0,0,0-.77-.06c-.09,0-.18,0-.18-.14s.11-.18.36-.18c1,0,2.37.07,2.55.07.5,0,1.81-.07,2.85-.07,2.83,0,3.84.95,4.21,1.29a4.14,4.14,0,0,1,1.13,3c0,2.94-2.35,5.11-5.56,5.11a3.77,3.77,0,0,1-.48,0c-.11,0-.25,0-.25-.16s.14-.21.61-.21A3.72,3.72,0,0,0,97.1,99a4.63,4.63,0,0,0-1.26-3.3,3.94,3.94,0,0,0-3.1-1.13,2.8,2.8,0,0,0-1,.13c-.14.05-.18.21-.18.43v9.29c0,2.17,0,4,.11,4.91.07.66.2,1.15.88,1.24a8.84,8.84,0,0,0,1,.09c.14,0,.18.07.18.14s-.11.18-.36.18c-1.24,0-2.67-.07-2.78-.07s-1.49.07-2.17.07c-.25,0-.36,0-.36-.18s0-.14.18-.14a3.08,3.08,0,0,0,.67-.09c.46-.09.57-.58.66-1.24.11-1,.11-2.74.11-4.91ZM103.46,102c0-3,0-3.53,0-4.14s-.2-.95-.9-1.09a4.29,4.29,0,0,0-.55,0c-.15,0-.24,0-.24-.14s.06-.16.27-.16c1,0,2.35.07,2.39.07.21,0,1.74-.07,2.38-.07a6.42,6.42,0,0,1,3.7.86,3.44,3.44,0,0,1,1.36,2.76,5.63,5.63,0,0,1-2.39,4.27c1.65,2,3,3.71,4.15,4.91a3.8,3.8,0,0,0,2.4,1.38c.16,0,.63,0,.7,0s.25.07.25.16-.09.16-.41.16h-1.58a5.17,5.17,0,0,1-2.06-.27c-.95-.41-1.62-1.43-2.8-2.94-.88-1.09-1.79-2.31-2.17-2.78a.33.33,0,0,0-.27-.14l-2.33,0c-.09,0-.11,0-.11.11v.32c0,1.81,0,3.46.11,4.27.07.55.14,1,.88,1.09.23,0,.48,0,.66,0s.29.07.29.14-.09.18-.31.18c-1.18,0-2.45-.07-2.54-.07-.36,0-1.35.07-2,.07-.23,0-.32,0-.32-.18s.14-.14.27-.14a2.2,2.2,0,0,0,.5,0c.38-.07.52-.32.59-.86.11-.81.09-2.67.09-4.36Zm1.74,1.6c0,.11,0,.23.11.27a5.71,5.71,0,0,0,2,.3,2.73,2.73,0,0,0,1.52-.34A3.27,3.27,0,0,0,110,101c0-2.47-1.31-3.83-3.33-3.83a5.86,5.86,0,0,0-1.31.12.21.21,0,0,0-.13.2Zm13.25-1.6c0-3,0-3.51,0-4.12s-.2-1-.86-1.08a2.84,2.84,0,0,0-.54,0c-.16,0-.29-.07-.29-.14s.11-.18.33-.18c.46,0,1.07,0,2.33.07.12,0,4.14,0,4.59,0a3.42,3.42,0,0,0,.88-.11.63.63,0,0,1,.25-.07s.09,0,.09.16-.13.45-.18,1c0,.39,0,.75-.07,1.18,0,.2,0,.34-.15.34s-.16-.09-.16-.25a2,2,0,0,0-.16-.72c-.14-.46-.34-.61-1.47-.68-.29,0-2.53,0-2.58,0s-.11,0-.11.18v5.14c0,.13,0,.22.14.22s2.57,0,3-.07.86-.09,1-.34.16-.18.25-.18.09,0,.09.14-.09.54-.16,1.2-.07,1.08-.09,1.38-.07.25-.16.25-.14-.14-.14-.3a2.86,2.86,0,0,0-.06-.54c-.09-.3-.23-.61-1.09-.68-.52,0-2.35-.09-2.71-.09-.14,0-.16.07-.16.16v1.65c0,.7,0,2.69,0,3.07,0,.84.16,1.27.63,1.47a4.23,4.23,0,0,0,1.65.21,6.67,6.67,0,0,0,1.72-.14c.68-.2.84-.66,1-1.49,0-.23.11-.32.2-.32s.14.21.14.34-.18,1.58-.25,2-.25.5-1,.5c-1.49,0-2.12-.05-2.91-.05s-1.83-.07-2.67-.07c-.52,0-1,.07-1.49.07-.21,0-.32,0-.32-.16s.09-.16.21-.16a1.93,1.93,0,0,0,.45-.06c.4-.09.68-.39.72-1.79,0-.77,0-1.7,0-3.41Zm11.23,8.72c-.29-.13-.29-.22-.29-.77,0-1,.07-1.81.09-2.12s.07-.32.18-.32.16.07.16.23a2.8,2.8,0,0,0,.07.68,2.71,2.71,0,0,0,2.93,2,2.54,2.54,0,0,0,2.79-2.42c0-1.29-.59-2.08-2.24-3.41l-.91-.7c-2.17-1.74-2.62-2.94-2.62-4.28,0-2.08,1.65-3.48,4.18-3.48a8,8,0,0,1,1.83.18,4,4,0,0,0,.77.12c.16,0,.21,0,.21.13s-.09.88-.09,2.19c0,.34-.05.48-.16.48s-.14-.09-.16-.25a3,3,0,0,0-.27-1.06c-.11-.21-.63-1.06-2.53-1.06a2.16,2.16,0,0,0-2.38,2.17c0,1.06.55,1.71,2.42,3.14l.52.41c2.35,1.8,3,3,3,4.61a4,4,0,0,1-1.72,3.21,5.67,5.67,0,0,1-3,.79A6.32,6.32,0,0,1,129.68,110.74ZM142.09,102c0-3,0-3.51,0-4.12s-.2-1-.86-1.08a2.92,2.92,0,0,0-.54,0c-.16,0-.3-.07-.3-.14s.12-.18.34-.18c.45,0,1.07,0,2.33.07.11,0,4.14,0,4.59,0a3.42,3.42,0,0,0,.88-.11.63.63,0,0,1,.25-.07s.09,0,.09.16-.13.45-.18,1c0,.39,0,.75-.07,1.18,0,.2,0,.34-.16.34s-.15-.09-.15-.25a2.2,2.2,0,0,0-.16-.72c-.14-.46-.34-.61-1.47-.68-.3,0-2.53,0-2.58,0s-.11,0-.11.18v5.14c0,.13,0,.22.13.22.27,0,2.58,0,3.06-.07s.85-.09,1-.34.15-.18.24-.18.09,0,.09.14-.09.54-.15,1.2-.07,1.08-.09,1.38-.07.25-.16.25-.14-.14-.14-.3a2.28,2.28,0,0,0-.07-.54c-.09-.3-.22-.61-1.08-.68-.52,0-2.35-.09-2.71-.09-.14,0-.16.07-.16.16v1.65c0,.7,0,2.69,0,3.07,0,.84.16,1.27.63,1.47a4.23,4.23,0,0,0,1.65.21A6.7,6.7,0,0,0,148,110c.68-.2.84-.66,1-1.49,0-.23.11-.32.2-.32s.14.21.14.34-.18,1.58-.25,2-.25.5-1,.5c-1.49,0-2.12-.05-2.91-.05s-1.83-.07-2.67-.07c-.52,0-.95.07-1.49.07-.21,0-.32,0-.32-.16a.18.18,0,0,1,.2-.16,1.94,1.94,0,0,0,.46-.06c.4-.09.67-.39.72-1.79,0-.77,0-1.7,0-3.41Zm12-4.91c0-.7.06-.93.25-.93s.54.45.7.61,3.34,3.44,6.51,6.67c1.76,1.72,4,4.05,4.61,4.59l-.25-9.4c0-1.22-.16-1.63-.77-1.79a5.33,5.33,0,0,0-.88-.09c-.23,0-.27-.09-.27-.18s.18-.14.41-.14c1,0,1.92.07,2.12.07s.93-.07,1.81-.07c.25,0,.32,0,.32.14s-.07.16-.21.18-.31,0-.56.07c-.52.11-.68.34-.68,1.69l-.05,11.35c0,1.13,0,1.25-.2,1.25s-.38-.16-1.49-1.2c-.09-.05-3.23-3.17-5.2-5.09l-5.18-5.38.3,8.84c0,1.56.18,2.15.74,2.28a4,4,0,0,0,.93.09c.18,0,.27.07.27.16s-.11.16-.36.16c-1.22,0-2-.07-2.2-.07s-1,.07-2,.07c-.21,0-.34,0-.34-.16s.09-.16.32-.16a2.31,2.31,0,0,0,.7-.09c.49-.16.61-.77.61-2.42C154.08,97.38,154.1,100.86,154.08,97.11Zm24.32,8.3c0,1.74,0,3.34.12,4.18.06.54.11.86.67,1a4.45,4.45,0,0,0,.89.09c.18,0,.27.07.27.14s-.07.18-.3.18c-1.15,0-2.48-.07-2.57-.07s-1.43.07-2,.07c-.24,0-.34,0-.34-.16s.07-.16.25-.16a4.18,4.18,0,0,0,.5,0c.43-.07.5-.34.59-1.11s.09-2.44.09-4.13V97.34c-.75,0-1.94,0-2.85,0-1.45,0-1.76.25-2.08.72a4.4,4.4,0,0,0-.34.7c-.07.16-.11.18-.2.18s-.11-.09-.11-.2.31-1.63.45-2.24c.07-.27.13-.36.2-.36s.59.2,1,.25c.79.09,1.42.11,1.44.11h7.42a9.63,9.63,0,0,0,1.63-.11,2.51,2.51,0,0,1,.42-.09c.1,0,.14.11.14.2,0,.63,0,2.13,0,2.31s-.1.27-.16.27-.16-.09-.16-.27a3,3,0,0,0,0-.32c-.09-.9-.39-1.13-2.67-1.15l-2.22,0Zm18-5c0-3.53,0-4.16,0-4.89s-.22-1.13-1-1.29c-.14,0-.36,0-.57,0s-.38,0-.38-.16.11-.18.36-.18c.88,0,1.74.07,2.56.07.45,0,5,0,5.56,0a3.14,3.14,0,0,0,1.11-.13.39.39,0,0,1,.2-.09c.09,0,.13.09.13.2s-.09.43-.13.7c-.09.66-.09,1-.14,1.65,0,.27-.11.45-.2.45s-.14-.09-.16-.29a1.69,1.69,0,0,0-.43-1.13,2.07,2.07,0,0,0-1.33-.43l-3.46-.07c-.14,0-.2.07-.2.25v6.24c0,.14,0,.21.15.21.93,0,2.22,0,3.15,0,1.19,0,1.49,0,1.8-.43.12-.13.16-.22.25-.22s.12.06.12.18-.12.52-.18,1.26-.07,1.22-.09,1.56,0,.39-.16.39-.16-.16-.18-.39a1.34,1.34,0,0,0-1.29-1.44c-.57-.07-3-.07-3.42-.07-.11,0-.15,0-.15.2v1.92c0,1.93,0,3.53.06,4.57s.32,1.52.93,1.58c.29,0,.68.07.93.09s.27.07.27.16-.11.16-.36.16c-1.27,0-2.67-.07-2.78-.07h-.21c-.45,0-1.47.07-2,.07-.25,0-.36,0-.36-.18s0-.11.25-.14a3.06,3.06,0,0,0,.59-.09c.47-.13.63-.47.7-1.47s.09-2.55.09-4.68Zm13.92,4.25c0,2.75.52,3.93,1.38,4.7a4.31,4.31,0,0,0,3,1,3.83,3.83,0,0,0,3.09-1.31c.91-1,1.11-2.76,1.11-4.73V102c0-3,0-3.49,0-4.1s-.12-1-.84-1.1a4,4,0,0,0-.63,0c-.14,0-.23-.07-.23-.14s.11-.18.32-.18c1,0,2.1.07,2.19.07s1.09-.07,1.72-.07c.22,0,.31,0,.31.16s-.09.16-.22.16l-.41,0c-.63.07-.72.48-.77,1.13s0,1.13,0,4.1v2c0,2-.23,4.47-1.83,5.85a5.85,5.85,0,0,1-4.14,1.36,6.29,6.29,0,0,1-4.23-1.36c-1-.9-1.67-2.26-1.67-5.06V102c0-3,0-3.51-.07-4.12s-.13-1-.83-1.08a3.51,3.51,0,0,0-.59,0c-.16,0-.25-.07-.25-.14s.09-.18.34-.18c1,0,2.19.07,2.35.07s1.52-.07,2.13-.07c.24,0,.31,0,.31.16s-.16.16-.27.16a3.37,3.37,0,0,0-.5,0c-.54.06-.63.45-.67,1.08s0,1.13,0,4.12Zm20.8.7c0,1.74,0,3.34.12,4.18.06.54.11.86.67,1a4.38,4.38,0,0,0,.89.09c.18,0,.27.07.27.14s-.07.18-.3.18c-1.15,0-2.48-.07-2.57-.07s-1.43.07-2,.07c-.25,0-.34,0-.34-.16s.07-.16.25-.16a4.18,4.18,0,0,0,.5,0c.43-.07.5-.34.59-1.11s.09-2.44.09-4.13V97.34c-.75,0-1.95,0-2.85,0-1.45,0-1.76.25-2.08.72a4.4,4.4,0,0,0-.34.7c-.07.16-.11.18-.2.18s-.12-.09-.12-.2.32-1.63.46-2.24c.06-.27.13-.36.2-.36s.59.2,1,.25c.79.09,1.42.11,1.44.11h7.42a9.42,9.42,0,0,0,1.62-.11,2.73,2.73,0,0,1,.43-.09c.09,0,.14.11.14.2,0,.63-.05,2.13-.05,2.31s-.09.27-.15.27S236,99,236,98.83a3,3,0,0,0,0-.32c-.09-.9-.39-1.13-2.67-1.15l-2.22,0Zm10.69-.7c0,2.75.52,3.93,1.38,4.7a4.32,4.32,0,0,0,3,1,3.82,3.82,0,0,0,3.09-1.31c.91-1,1.11-2.76,1.11-4.73V102c0-3,0-3.49,0-4.1s-.12-1-.84-1.1a4,4,0,0,0-.63,0c-.14,0-.23-.07-.23-.14s.11-.18.32-.18c1,0,2.1.07,2.19.07s1.09-.07,1.72-.07c.23,0,.32,0,.32.16s-.09.16-.23.16l-.41,0c-.63.07-.72.48-.77,1.13s0,1.13,0,4.1v2c0,2-.22,4.47-1.83,5.85a5.85,5.85,0,0,1-4.14,1.36,6.25,6.25,0,0,1-4.22-1.36c-1-.9-1.68-2.26-1.68-5.06V102c0-3,0-3.51-.07-4.12s-.13-1-.83-1.08a3.51,3.51,0,0,0-.59,0c-.16,0-.25-.07-.25-.14s.09-.18.34-.18c1,0,2.19.07,2.35.07s1.52-.07,2.13-.07c.25,0,.31,0,.31.16s-.15.16-.27.16a3.5,3.5,0,0,0-.5,0c-.54.06-.63.45-.67,1.08s0,1.13,0,4.12ZM257.87,102c0-3,0-3.53-.05-4.14s-.2-.95-.9-1.09a4.26,4.26,0,0,0-.54,0c-.16,0-.25,0-.25-.14s.07-.16.27-.16c1,0,2.35.07,2.4.07s1.74-.07,2.37-.07a6.45,6.45,0,0,1,3.71.86,3.43,3.43,0,0,1,1.35,2.76,5.63,5.63,0,0,1-2.39,4.27c1.65,2,3,3.71,4.16,4.91a3.76,3.76,0,0,0,2.39,1.38c.16,0,.64,0,.7,0s.25.07.25.16-.09.16-.4.16h-1.59a5.08,5.08,0,0,1-2.05-.27c-.95-.41-1.63-1.43-2.81-2.94-.88-1.09-1.78-2.31-2.17-2.78-.09-.09-.13-.14-.27-.14l-2.33,0c-.09,0-.11,0-.11.11v.32c0,1.81,0,3.46.11,4.27.07.55.14,1,.88,1.09.23,0,.48,0,.66,0s.29.07.29.14-.09.18-.31.18c-1.18,0-2.44-.07-2.53-.07-.37,0-1.36.07-2,.07-.23,0-.32,0-.32-.18s.14-.14.27-.14a2.2,2.2,0,0,0,.5,0c.38-.07.52-.32.59-.86.11-.81.09-2.67.09-4.36Zm1.74,1.6c0,.11,0,.23.11.27a5.76,5.76,0,0,0,2,.3,2.73,2.73,0,0,0,1.52-.34,3.27,3.27,0,0,0,1.13-2.87c0-2.47-1.31-3.83-3.32-3.83a5.8,5.8,0,0,0-1.31.12.2.2,0,0,0-.14.2Zm13.25-1.6c0-3,0-3.51-.05-4.12s-.2-1-.86-1.08a2.84,2.84,0,0,0-.54,0c-.16,0-.29-.07-.29-.14s.11-.18.34-.18c.45,0,1.06,0,2.32.07.12,0,4.14,0,4.59,0a3.45,3.45,0,0,0,.89-.11.56.56,0,0,1,.24-.07c.05,0,.09,0,.09.16s-.13.45-.18,1c0,.39,0,.75-.06,1.18,0,.2-.05.34-.16.34s-.16-.09-.16-.25a2,2,0,0,0-.16-.72c-.13-.46-.34-.61-1.47-.68-.29,0-2.53,0-2.58,0s-.11,0-.11.18v5.14c0,.13,0,.22.14.22s2.57,0,3-.07.86-.09,1-.34.16-.18.25-.18.09,0,.09.14-.09.54-.16,1.2-.07,1.08-.09,1.38-.07.25-.16.25-.13-.14-.13-.3a3,3,0,0,0-.07-.54c-.09-.3-.23-.61-1.09-.68-.52,0-2.35-.09-2.71-.09-.14,0-.16.07-.16.16v1.65c0,.7,0,2.69,0,3.07.05.84.16,1.27.63,1.47a4.28,4.28,0,0,0,1.66.21,6.63,6.63,0,0,0,1.71-.14c.68-.2.84-.66,1-1.49,0-.23.11-.32.2-.32s.14.21.14.34-.18,1.58-.25,2-.25.5-1,.5c-1.5,0-2.13-.05-2.92-.05s-1.83-.07-2.67-.07c-.52,0-.95.07-1.49.07-.2,0-.32,0-.32-.16s.09-.16.21-.16a1.93,1.93,0,0,0,.45-.06c.41-.09.68-.39.72-1.79,0-.77.05-1.7.05-3.41Zm23.42,11c.05.07.34.41.05.41a.68.68,0,0,1-.28-.16,12.29,12.29,0,0,1-5-10,13,13,0,0,1,5.06-10.09.72.72,0,0,1,.29-.13c.21,0-.11.31-.13.36a14,14,0,0,0-3.55,9.61C292.71,107.53,294,110.67,296.28,113Zm11.91-8.57c0,2.17,0,4,.12,4.91.07.66.2,1.15.88,1.24a8.65,8.65,0,0,0,1,.09c.13,0,.18.07.18.14s-.12.18-.36.18c-1.25,0-2.67-.07-2.79-.07s-1.53.07-2.21.07c-.25,0-.36,0-.36-.18s0-.14.18-.14a3.26,3.26,0,0,0,.68-.09c.45-.09.56-.58.65-1.24.12-1,.12-2.74.12-4.91V94.87c-1.11,0-2.24,0-3.35,0-1.4,0-1.94.18-2.31.72a3.71,3.71,0,0,0-.38.7c-.07.18-.14.23-.23.23s-.11-.07-.11-.21.45-2.17.5-2.35.13-.43.22-.43a4.09,4.09,0,0,0,1,.27c.65.07,1.51.12,1.78.12h8.48a8.69,8.69,0,0,0,1.61-.12c.34,0,.54-.11.63-.11s.11.14.11.27c0,.68-.06,2.24-.06,2.49s-.07.29-.16.29-.16-.07-.18-.38c0-.09,0-.16,0-.25-.06-.68-.61-1.2-2.78-1.24-1,0-1.9,0-2.85,0Zm10.4-2.41c0-3,0-3.53,0-4.14s-.18-.95-.66-1a4.75,4.75,0,0,0-.52-.07c-.15,0-.25-.07-.25-.16s.1-.16.34-.16c.7,0,2,.07,2.06.07s1.4-.07,2-.07c.22,0,.33,0,.33.16s-.06.14-.24.16-.25,0-.41,0c-.66.09-.72.42-.77,1.08s0,1.13,0,4.12v3.39c0,1.74,0,3.32.09,4.13.09.66.18.91.77,1a5,5,0,0,0,.86.09c.2,0,.24.07.24.16s-.09.16-.31.16c-1.15,0-2.47-.07-2.58-.07s-1.4.07-2,.07c-.21,0-.37,0-.37-.16s.1-.16.3-.16a3,3,0,0,0,.54-.06c.39-.09.45-.55.52-1.09.11-.81.11-2.42.11-4.11Zm24.13,6.48c.06.55.2,1.81,1.08,2a7.58,7.58,0,0,0,1.15.15c.1,0,.3,0,.3.14s-.09.18-.34.18c-.41,0-2.85-.09-3.57-.14-.5,0-.68-.09-.68-.2s.09-.16.2-.2.18-.32.14-.64l-1-9.67-4.79,9.72c-.43.88-.5,1.08-.7,1.08s-.25-.2-.68-1-2.17-4.27-2.3-4.47-2.36-4.66-2.54-5.14l-.83,8.71a8,8,0,0,0,0,.86.66.66,0,0,0,.57.68c.25,0,.41,0,.63.06s.23.09.23.14-.14.18-.39.18c-.72,0-1.69-.07-1.87-.07s-1.18.07-1.74.07c-.21,0-.34,0-.34-.18s.09-.14.29-.14l.43,0c.54,0,.75-.59.86-1.49l1.52-12.41c0-.39.13-.57.24-.57s.19.07.34.36L335,108.28l5.77-11.71c.11-.25.2-.39.34-.39s.2.21.22.57ZM349,102c0-3,0-3.51,0-4.12s-.2-1-.86-1.08a2.92,2.92,0,0,0-.54,0c-.16,0-.3-.07-.3-.14s.12-.18.34-.18c.46,0,1.07,0,2.33.07.11,0,4.14,0,4.59,0a3.42,3.42,0,0,0,.88-.11.63.63,0,0,1,.25-.07c.05,0,.09,0,.09.16s-.13.45-.18,1c0,.39,0,.75-.07,1.18,0,.2,0,.34-.16.34s-.15-.09-.15-.25A2.2,2.2,0,0,0,355,98c-.14-.46-.34-.61-1.47-.68-.3,0-2.53,0-2.58,0s-.11,0-.11.18v5.14c0,.13,0,.22.13.22.28,0,2.58,0,3.06-.07s.86-.09,1-.34.15-.18.24-.18.1,0,.1.14-.1.54-.16,1.2-.07,1.08-.09,1.38-.07.25-.16.25-.14-.14-.14-.3a2.28,2.28,0,0,0-.07-.54c-.09-.3-.22-.61-1.08-.68-.52,0-2.35-.09-2.71-.09-.14,0-.16.07-.16.16v1.65c0,.7,0,2.69,0,3.07,0,.84.16,1.27.63,1.47a4.23,4.23,0,0,0,1.65.21,6.7,6.7,0,0,0,1.72-.14c.68-.2.84-.66,1-1.49,0-.23.11-.32.2-.32s.14.21.14.34-.18,1.58-.25,2-.25.5-1,.5c-1.49,0-2.12-.05-2.91-.05s-1.83-.07-2.67-.07c-.52,0-1,.07-1.49.07-.21,0-.32,0-.32-.16a.18.18,0,0,1,.2-.16,1.94,1.94,0,0,0,.46-.06c.4-.09.67-.39.72-1.79,0-.77,0-1.7,0-3.41Zm14,3.43c0,2.6.09,3.91.47,4.27s.82.46,2.38.46c1,0,1.89,0,2.39-.64a2.77,2.77,0,0,0,.43-1.13c0-.18.07-.27.18-.27s.14.07.14.3a15.46,15.46,0,0,1-.27,2c-.14.45-.12.57-1.2.57-1.54,0-3.23-.12-5.5-.12-.74,0-1.19.07-2,.07-.23,0-.37,0-.37-.18s.07-.14.25-.14a2.46,2.46,0,0,0,.54,0c.39-.07.52-.52.59-1.06a35.42,35.42,0,0,0,.09-4.16V102c0-3,0-3.49,0-4.1s-.14-1-.91-1.13a4.79,4.79,0,0,0-.56,0c-.16,0-.25-.07-.25-.16s.11-.16.34-.16c.95,0,2.3.07,2.35.07.32,0,1.7-.07,2.33-.07.22,0,.29.07.29.16s-.11.16-.25.16a5.29,5.29,0,0,0-.61,0c-.63.09-.77.45-.81,1.1s0,1.11,0,4.1ZM373.33,102c0-3,0-3.53-.05-4.14s-.18-.95-.65-1c-.23,0-.39,0-.52-.07s-.25-.07-.25-.16.09-.16.34-.16c.7,0,2,.07,2.06.07s1.4-.07,2-.07c.23,0,.34,0,.34.16s-.07.14-.25.16-.25,0-.41,0c-.65.09-.72.42-.76,1.08s0,1.13,0,4.12v3.39c0,1.74,0,3.32.09,4.13.09.66.18.91.77,1a5,5,0,0,0,.86.09c.2,0,.25.07.25.16s-.09.16-.32.16c-1.15,0-2.46-.07-2.57-.07s-1.41.07-2,.07c-.2,0-.36,0-.36-.16s.09-.16.29-.16a3.15,3.15,0,0,0,.55-.06c.38-.09.45-.55.52-1.09.11-.81.11-2.42.11-4.11Zm8.59-4.91c0-.7.07-.93.25-.93s.54.45.7.61,3.35,3.44,6.51,6.67c1.76,1.72,4,4.05,4.61,4.59l-.25-9.4c0-1.22-.15-1.63-.77-1.79a5.33,5.33,0,0,0-.88-.09c-.22,0-.27-.09-.27-.18s.18-.14.41-.14c1,0,1.92.07,2.12.07s.93-.07,1.81-.07c.25,0,.32,0,.32.14s-.07.16-.2.18-.32,0-.57.07c-.52.11-.68.34-.68,1.69l0,11.35c0,1.13-.05,1.25-.21,1.25s-.38-.16-1.49-1.2c-.09-.05-3.23-3.17-5.2-5.09l-5.18-5.38.3,8.84c0,1.56.18,2.15.74,2.28a4,4,0,0,0,.93.09c.18,0,.27.07.27.16s-.11.16-.36.16c-1.22,0-2-.07-2.19-.07s-1,.07-2,.07c-.2,0-.34,0-.34-.16s.09-.16.32-.16a2.25,2.25,0,0,0,.7-.09c.5-.16.61-.77.61-2.42C381.92,97.38,381.94,100.86,381.92,97.11ZM401.84,102c0-3,0-3.51,0-4.12s-.2-1-.86-1.08a2.84,2.84,0,0,0-.54,0c-.16,0-.29-.07-.29-.14s.11-.18.34-.18c.45,0,1.06,0,2.32.07.12,0,4.14,0,4.59,0a3.52,3.52,0,0,0,.89-.11.56.56,0,0,1,.24-.07s.09,0,.09.16-.13.45-.18,1c0,.39,0,.75-.06,1.18,0,.2-.05.34-.16.34s-.16-.09-.16-.25a2,2,0,0,0-.16-.72c-.13-.46-.34-.61-1.47-.68-.29,0-2.53,0-2.58,0s-.11,0-.11.18v5.14c0,.13,0,.22.14.22.27,0,2.57,0,3.05-.07s.86-.09,1-.34.16-.18.25-.18.09,0,.09.14-.09.54-.16,1.2S408,104.68,408,105s-.07.25-.16.25-.13-.14-.13-.3a3,3,0,0,0-.07-.54c-.09-.3-.23-.61-1.09-.68-.52,0-2.35-.09-2.71-.09-.14,0-.16.07-.16.16v1.65c0,.7,0,2.69,0,3.07.05.84.16,1.27.63,1.47a4.26,4.26,0,0,0,1.65.21,6.67,6.67,0,0,0,1.72-.14c.68-.2.84-.66,1-1.49.05-.23.11-.32.2-.32s.14.21.14.34-.18,1.58-.25,2-.25.5-1,.5c-1.5,0-2.13-.05-2.92-.05s-1.83-.07-2.67-.07c-.52,0-1,.07-1.49.07-.2,0-.32,0-.32-.16s.09-.16.21-.16a1.93,1.93,0,0,0,.45-.06c.41-.09.68-.39.72-1.79,0-.77,0-1.7,0-3.41Zm10.8-8.6s-.31-.4-.06-.4a.78.78,0,0,1,.29.16,12.25,12.25,0,0,1,5,10,13,13,0,0,1-5.06,10.08.72.72,0,0,1-.3.14c-.2,0,.11-.32.14-.36a14,14,0,0,0,3.55-9.61C416.22,98.9,414.91,95.75,412.64,93.42Z"/><rect x="25.34" y="127.45" width="1.13" height="18.09"/><rect x="156.93" y="127.45" width="1.13" height="18.09"/><rect x="26.09" y="135.93" width="130.83" height="1.13"/><rect x="157.56" y="135.93" width="130.83" height="1.13"/><rect x="289.02" y="135.93" width="130.83" height="1.13"/><rect x="288.52" y="127.45" width="1.13" height="18.09"/><rect x="418.73" y="127.45" width="1.13" height="18.09"/><path d="M17.87,155.64a1.44,1.44,0,0,1,.22-.75,1.47,1.47,0,0,1,.51-.48,2.1,2.1,0,0,1,.69-.25,3.36,3.36,0,0,1,.77-.08,4.36,4.36,0,0,1,.72,0,2.3,2.3,0,0,1,.66.19,1.3,1.3,0,0,1,.49.41,1.14,1.14,0,0,1,.19.68v2.43a6.08,6.08,0,0,0,0,.61,1.22,1.22,0,0,0,.13.43H21a1.69,1.69,0,0,1-.09-.45,1.67,1.67,0,0,1-.73.44,2.7,2.7,0,0,1-.85.13,2.45,2.45,0,0,1-.62-.08,1.54,1.54,0,0,1-.51-.26,1.2,1.2,0,0,1-.34-.43,1.49,1.49,0,0,1-.12-.62,1.4,1.4,0,0,1,.14-.66,1.1,1.1,0,0,1,.36-.41,1.69,1.69,0,0,1,.51-.23,5.78,5.78,0,0,1,.57-.12l.57-.08a2.27,2.27,0,0,0,.5-.08.72.72,0,0,0,.34-.16.32.32,0,0,0,.12-.3.62.62,0,0,0-.07-.33.47.47,0,0,0-.18-.19.88.88,0,0,0-.26-.09l-.32,0a1,1,0,0,0-.6.16.73.73,0,0,0-.25.54Zm3,1a.56.56,0,0,1-.2.12,2,2,0,0,1-.26.06l-.3,0-.31,0-.28.08a.77.77,0,0,0-.24.12.52.52,0,0,0-.17.19.66.66,0,0,0-.07.3.62.62,0,0,0,.07.29.52.52,0,0,0,.17.19.92.92,0,0,0,.25.09l.3,0a1.1,1.1,0,0,0,.59-.13.81.81,0,0,0,.31-.3,1.27,1.27,0,0,0,.12-.36c0-.12,0-.22,0-.29Z"/><path d="M24.58,157.49v1.39H23.16v-1.39Z"/><path d="M29.9,154.15a1.34,1.34,0,0,0-.31-.36,1.82,1.82,0,0,0-.43-.24,1.44,1.44,0,0,0-.51-.09,1.67,1.67,0,0,0-.81.19,1.52,1.52,0,0,0-.54.5,2.28,2.28,0,0,0-.31.71,3.68,3.68,0,0,0-.09.82,3.48,3.48,0,0,0,.09.79,2.17,2.17,0,0,0,.31.69,1.62,1.62,0,0,0,.54.5,1.67,1.67,0,0,0,.81.18,1.29,1.29,0,0,0,1-.4,1.81,1.81,0,0,0,.45-1.05h1.37a3.18,3.18,0,0,1-.28,1.1,2.78,2.78,0,0,1-.59.83,2.55,2.55,0,0,1-.87.52,3.21,3.21,0,0,1-1.1.19,3.36,3.36,0,0,1-1.33-.26,2.89,2.89,0,0,1-1-.71A3.12,3.12,0,0,1,25.7,157a3.81,3.81,0,0,1-.22-1.32,3.88,3.88,0,0,1,.22-1.34,3,3,0,0,1,.62-1.08,2.94,2.94,0,0,1,1-.73,3.36,3.36,0,0,1,1.33-.26,3.29,3.29,0,0,1,1,.15,3,3,0,0,1,.85.45,2.43,2.43,0,0,1,.62.73,2.62,2.62,0,0,1,.31,1H30.06A1,1,0,0,0,29.9,154.15Z"/><path d="M33.8,157.49v1.39H32.38v-1.39Z"/><path d="M152.37,158.28a1.27,1.27,0,0,1-.6.55,2,2,0,0,1-.82.17,2,2,0,0,1-.93-.21,1.82,1.82,0,0,1-.65-.55,2.59,2.59,0,0,1-.39-.8,3.24,3.24,0,0,1-.13-.94,3.13,3.13,0,0,1,.13-.91,2.43,2.43,0,0,1,.39-.77,1.92,1.92,0,0,1,.65-.54,2,2,0,0,1,.9-.2,1.79,1.79,0,0,1,.79.18,1.34,1.34,0,0,1,.59.51h0v-2.35h1.28v6.46h-1.22v-.6Zm-.06-2.31a1.48,1.48,0,0,0-.18-.47,1.19,1.19,0,0,0-.34-.33,1.23,1.23,0,0,0-1.06,0,1,1,0,0,0-.35.34,1.41,1.41,0,0,0-.19.47,2.6,2.6,0,0,0-.06.56,2,2,0,0,0,.07.54,1.48,1.48,0,0,0,.2.48,1.06,1.06,0,0,0,.35.35.92.92,0,0,0,.51.13,1,1,0,0,0,.53-.13.86.86,0,0,0,.34-.34,1.26,1.26,0,0,0,.18-.48,2.64,2.64,0,0,0,0-1.12Z"/><path d="M156.05,157.49v1.39h-1.42v-1.39Z"/><path d="M161.36,154.15a1.34,1.34,0,0,0-.31-.36,1.64,1.64,0,0,0-.43-.24,1.43,1.43,0,0,0-.5-.09,1.74,1.74,0,0,0-.82.19,1.52,1.52,0,0,0-.54.5,2.06,2.06,0,0,0-.3.71,3.18,3.18,0,0,0-.1.82,3,3,0,0,0,.1.79,2,2,0,0,0,.3.69,1.62,1.62,0,0,0,.54.5,1.74,1.74,0,0,0,.82.18,1.28,1.28,0,0,0,1-.4,1.75,1.75,0,0,0,.45-1.05H163a3.42,3.42,0,0,1-.28,1.1,2.81,2.81,0,0,1-.6.83,2.55,2.55,0,0,1-.87.52,3.2,3.2,0,0,1-1.09.19,3.37,3.37,0,0,1-1.34-.26,2.89,2.89,0,0,1-1-.71,3.12,3.12,0,0,1-.62-1.06,3.81,3.81,0,0,1-.22-1.32,3.88,3.88,0,0,1,.22-1.34,3,3,0,0,1,.62-1.08,2.94,2.94,0,0,1,1-.73,3.37,3.37,0,0,1,1.34-.26,3.27,3.27,0,0,1,1,.15,3,3,0,0,1,.85.45,2.51,2.51,0,0,1,.93,1.72h-1.37A1.12,1.12,0,0,0,161.36,154.15Z"/><path d="M165.26,157.49v1.39h-1.42v-1.39Z"/><path d="M279.45,158.88l-2.09-6.46h1.46l1.44,4.54h0l1.46-4.54h1.46l-2.14,6.46Z"/><path d="M283.93,157.49v1.39h-1.42v-1.39Z"/><path d="M288.32,152.42l2.42,6.46h-1.48l-.49-1.44h-2.41l-.51,1.44h-1.43l2.45-6.46Zm.08,4-.81-2.36h0l-.84,2.36Z"/><path d="M292.64,157.49v1.39h-1.42v-1.39Z"/><path d="M293.25,152.8v-.7h3.08v.7H295.2v3.07h-.82V152.8Z"/><path d="M297.93,152.1l.88,2.59h0l.83-2.59h1.17v3.77H300V153.2h0l-.92,2.67h-.64l-.92-2.64h0v2.64h-.78V152.1Z"/><path d="M416.83,154.5a2.56,2.56,0,0,1,.17-.89,2.07,2.07,0,0,1,.44-.71,1.94,1.94,0,0,1,.69-.46,2.37,2.37,0,0,1,.9-.17,2.78,2.78,0,0,1,1.07.18,1.94,1.94,0,0,1,.69.43,1.67,1.67,0,0,1,.38.57,1.74,1.74,0,0,1,.11.57,2,2,0,0,1-.11.71,1.84,1.84,0,0,1-.28.48,2.43,2.43,0,0,1-.38.34c-.13.09-.26.18-.38.28a1.62,1.62,0,0,0-.32.32,1,1,0,0,0-.18.45V157h-1.22v-.41a1.89,1.89,0,0,1,.15-.65,1.66,1.66,0,0,1,.29-.45,2.54,2.54,0,0,1,.34-.32l.34-.27a1.13,1.13,0,0,0,.24-.3.66.66,0,0,0,.09-.41.84.84,0,0,0-.2-.61.76.76,0,0,0-.57-.2.93.93,0,0,0-.42.09.91.91,0,0,0-.29.26,1.26,1.26,0,0,0-.17.37,2.14,2.14,0,0,0,0,.45Zm2.88,3v1.39h-1.42v-1.39Z"/></svg>